<svg xmlns:inkscape="http://www.inkscape.org/namespaces/inkscape" xmlns="http://www.w3.org/2000/svg" xmlns:svg="http://www.w3.org/2000/svg" version="1.0" width="433.6626pt" height="570.8313pt" viewBox="0 0 438.60613 577.33849" preserveAspectRatio="xMidYMid" id="svg4">
  <g transform="matrix(0.1,0,0,-0.1,-61.244367,605.03847)" fill="#3451b2" stroke="none" id="g4">
    <path d="m 1572,6024 c -158,-79 -198,-271 -86,-421 36,-48 135,-93 203,-93 90,0 145,25 213,99 l 58,64 88,-13 c 161,-24 276,-72 380,-160 36,-30 67,-60 69,-66 2,-6 -20,-21 -49,-35 -265,-123 -448,-371 -489,-664 -16,-113 -13,-120 48,-94 76,33 263,87 375,108 278,55 566,55 846,0 112,-21 299,-75 376,-109 27,-11 51,-18 54,-15 11,10 -18,192 -41,260 -80,234 -253,428 -464,520 -24,10 -43,21 -43,26 0,12 89,88 145,124 69,45 202,90 308,105 l 89,12 51,-57 c 98,-110 215,-135 338,-72 136,69 186,225 115,364 -46,91 -130,142 -232,143 -139,0 -235,-72 -275,-207 -11,-40 -14,-42 -58,-48 -243,-29 -415,-106 -555,-249 l -68,-71 h -165 -164 l -50,57 c -27,31 -88,83 -135,114 -125,83 -217,115 -438,151 -48,8 -49,9 -60,53 -22,88 -84,157 -165,186 -63,23 -160,18 -219,-12 z" id="path1"/>
    <path d="M 2549,4670 C 1985,4605 1464,4327 1109,3901 1005,3776 934,3672 946,3661 c 19,-17 1828,-1054 1839,-1054 7,0 106,54 221,120 1044,600 1610,927 1618,934 18,16 -127,209 -263,352 -194,203 -479,398 -726,497 -182,73 -301,107 -510,146 -95,18 -463,27 -576,14 z" id="path2"/>
    <path d="M 802,3358 C 387,2431 671,1328 1482,718 1813,468 2227,309 2618,283 l 92,-6 v 1066 1067 l -22,14 c -13,7 -167,97 -343,198 -176,101 -576,332 -889,512 -313,181 -576,331 -586,333 -13,4 -28,-19 -68,-109 z" id="path3"/>
    <path d="m 4575,3377 c -88,-52 -326,-189 -530,-306 -376,-217 -692,-399 -980,-566 l -160,-93 -3,-1068 -2,-1067 92,6 c 399,27 827,192 1155,445 384,298 663,721 782,1185 46,177 62,289 68,472 9,271 -22,500 -103,755 -42,132 -127,324 -146,327 -7,2 -85,-39 -173,-90 z" id="path4"/>
  </g>
</svg>
